<?xml version="1.0" encoding="UTF-8"?>
<svg version="1.1" xmlns="http://www.w3.org/2000/svg" width="64" height="64">
<path d="M0 0 C1.56971558 -0.00430527 1.56971558 -0.00430527 3.17114258 -0.00869751 C5.38005109 -0.01073578 7.58897775 -0.00522254 9.79785156 0.00732422 C13.17554146 0.02338065 16.55203475 0.00746687 19.9296875 -0.01171875 C22.07812764 -0.00973628 24.22656703 -0.00589252 26.375 0 C27.38344971 -0.00607269 28.39189941 -0.01214539 29.4309082 -0.0184021 C38.44382679 0.07183857 38.44382679 0.07183857 42.1875 3.3984375 C46.2254672 7.96944958 45.67214853 13.35964883 45.69140625 19.140625 C45.70139145 20.1823587 45.71137665 21.22409241 45.72166443 22.2973938 C45.73683007 24.49786414 45.7438907 26.69840324 45.7434082 28.89892578 C45.74996476 32.255395 45.80445187 35.60889827 45.86132812 38.96484375 C45.87013184 41.10676076 45.87608495 43.24869176 45.87890625 45.390625 C45.9004628 46.38875214 45.92201935 47.38687927 45.94422913 48.41525269 C45.88494746 54.48048202 44.9568603 57.77864719 40.67100525 62.15652466 C37.97379732 64.41448577 36.08438202 64.5347077 32.64941406 64.57543945 C31.23719574 64.59469231 31.23719574 64.59469231 29.79644775 64.61433411 C28.77565125 64.62172104 27.75485474 64.62910797 26.703125 64.63671875 C25.65477478 64.6447905 24.60642456 64.65286224 23.52630615 64.66117859 C21.30368711 64.67502684 19.08104673 64.68574567 16.85839844 64.69360352 C13.46508223 64.71079774 10.07274484 64.75467595 6.6796875 64.79882812 C4.5208405 64.80895655 2.36198522 64.81747218 0.203125 64.82421875 C-0.80957458 64.84172684 -1.82227417 64.85923492 -2.86566162 64.87727356 C-8.65935944 64.85950805 -12.33685231 64.48257814 -16.8125 60.3984375 C-18.66481565 57.39562993 -19.06767947 55.12115549 -19.0871582 51.61743164 C-19.09669022 50.67287613 -19.10622223 49.72832062 -19.11604309 48.75514221 C-19.11513168 47.74153122 -19.11422028 46.72792023 -19.11328125 45.68359375 C-19.11756638 44.63570175 -19.1218515 43.58780975 -19.12626648 42.50816345 C-19.13200628 40.29329144 -19.13251262 38.07840059 -19.12817383 35.86352539 C-19.12501503 32.47704875 -19.14847405 29.0914467 -19.17382812 25.70507812 C-19.17610128 23.55208443 -19.17680454 21.3990884 -19.17578125 19.24609375 C-19.184991 18.23450699 -19.19420074 17.22292023 -19.20368958 16.18067932 C-19.14426483 7.13923089 -19.14426483 7.13923089 -15.8125 3.3984375 C-11.22509361 -0.67789619 -5.80354498 -0.03494785 0 0 Z " fill="#104761" transform="translate(18.8125,-0.3984375)"/>
<path d="M0 0 C13.86 0 27.72 0 42 0 C42 13.86 42 27.72 42 42 C28.14 42 14.28 42 0 42 C0 28.14 0 14.28 0 0 Z " fill="#FAFBFC" transform="translate(11,11)"/>
<path d="M0 0 C15.84 0 31.68 0 48 0 C48 15.84 48 31.68 48 48 C32.16 48 16.32 48 0 48 C0 32.16 0 16.32 0 0 Z M3 3 C3 16.86 3 30.72 3 45 C16.86 45 30.72 45 45 45 C45 31.14 45 17.28 45 3 C31.14 3 17.28 3 3 3 Z " fill="#618596" transform="translate(8,8)"/>
<path d="M0 0 C1.98 0 3.96 0 6 0 C6 2.64 6 5.28 6 8 C9.74221057 6.93079698 10.96077654 6.05160981 13.375 2.875 C16 0 16 0 19.8125 -0.375 C20.864375 -0.25125 21.91625 -0.1275 23 0 C21.88408263 2.60380719 20.93328633 4.06099536 18.8125 6 C18.214375 6.66 17.61625 7.32 17 8 C17.34919349 11.39416074 18.782559 13.17797113 21.0625 15.625 C24 18.79058824 24 18.79058824 24 21 C20.9375 21.5 20.9375 21.5 17 21 C14.2292016 18.65712414 11.99909747 16.02598948 10 13 C10 12.34 10 11.68 10 11 C8.68 11 7.36 11 6 11 C6 13.97 6 16.94 6 20 C4.02 20 2.04 20 0 20 C0 13.4 0 6.8 0 0 Z " fill="#25629C" transform="translate(20,25)"/>
</svg>
